<?xml version="1.0" encoding="UTF-8" standalone="no"?>
<!DOCTYPE svg PUBLIC "-//W3C//DTD SVG 1.1//EN" "http://www.w3.org/Graphics/SVG/1.1/DTD/svg11.dtd">
<svg width="100%" height="100%" viewBox="0 0 400 335" version="1.1" xmlns="http://www.w3.org/2000/svg" xmlns:xlink="http://www.w3.org/1999/xlink" xml:space="preserve" xmlns:serif="http://www.serif.com/" style="fill-rule:evenodd;clip-rule:evenodd;stroke-linejoin:round;stroke-miterlimit:2;">
    <g transform="matrix(1,0,0,1,0,-32.7433)">
        <g transform="matrix(1.6809,0,0,1.6809,-166.1,120.495)">
            <path d="M208.461,70.532L203.109,50.463L194.136,21.079L246.634,73.576L257.217,107.751L297.903,-52.205L336.783,-52.205L277.743,146.803L228.992,146.803L216.608,100.723L208.461,70.532ZM191.471,12.35L182.161,-18.14L158.144,71.923L204.4,71.923L212.117,100.723L150.656,100.723L138.272,146.803L98.816,146.803L160.736,-52.205L212.655,-52.205L239.533,50.648L243.913,64.792L191.471,12.35Z" style="fill:rgb(174,235,255);"/>
        </g>
    </g>
</svg>
